<svg xmlns="http://www.w3.org/2000/svg" xmlns:xlink="http://www.w3.org/1999/xlink" width="32" height="32" version="1.1" viewBox="0 0 32 32"><title>Group 3</title><defs><polygon id="path-1" points="0 0 32 0 32 32 0 32"/></defs><g id="Page-1" fill="none" fill-rule="evenodd" stroke="none" stroke-width="1"><g id="Group-3"><mask id="mask-2" fill="#fff"><use xlink:href="#path-1"/></mask><path id="Fill-1" fill="#181717" d="M15.9986178,-3.55271368e-15 C7.16374979,-3.55271368e-15 -0.0004,7.293 -0.0004,16.291 C-0.0004,23.487 4.58351651,29.592 10.9422642,31.747 C11.7427553,31.896 12.034468,31.393 12.034468,30.961 C12.034468,30.575 12.0207172,29.55 12.0128597,28.191 C7.56252204,29.175 6.62354107,26.007 6.62354107,26.007 C5.8957326,24.125 4.84674549,23.625 4.84674549,23.625 C3.39407514,22.614 4.95675163,22.634 4.95675163,22.634 C6.56264481,22.75 7.40733481,24.313 7.40733481,24.313 C8.83446802,26.802 11.1514723,26.083 12.0639339,25.667 C12.2092992,24.614 12.6218222,23.896 13.0795263,23.489 C9.52691737,23.078 5.79161964,21.68 5.79161964,15.438 C5.79161964,13.66 6.41531516,12.206 7.43876513,11.067 C7.27375592,10.655 6.72470743,8.999 7.59493456,6.756 C7.59493456,6.756 8.93858097,6.318 11.9951801,8.426 C13.2710549,8.064 14.6402384,7.884 16.0005822,7.877 C17.3589616,7.884 18.7281451,8.064 20.0059843,8.426 C23.060619,6.318 24.4013188,6.756 24.4013188,6.756 C25.2744926,8.999 24.7254441,10.655 24.5604349,11.067 C25.5858492,12.206 26.205616,13.66 26.205616,15.438 C26.205616,21.696 22.464425,23.073 18.9000297,23.476 C19.4746153,23.979 19.9863403,24.973 19.9863403,26.493 C19.9863403,28.67 19.9666964,30.427 19.9666964,30.961 C19.9666964,31.397 20.2544803,31.904 21.0667578,31.745 C27.4186301,29.586 31.9996,23.485 31.9996,16.291 C31.9996,7.293 24.8354502,-3.55271368e-15 15.9986178,-3.55271368e-15" mask="url(#mask-2)"/></g></g></svg>